<?xml version="1.0" standalone="no"?>
<!DOCTYPE svg PUBLIC "-//W3C//DTD SVG 20010904//EN"
 "http://www.w3.org/TR/2001/REC-SVG-20010904/DTD/svg10.dtd">
<svg version="1.0" xmlns="http://www.w3.org/2000/svg"
 width="512.000000pt" height="512.000000pt" viewBox="0 0 512.000000 512.000000"
 preserveAspectRatio="xMidYMid meet">

<g transform="translate(0.000000,512.000000) scale(0.100000,-0.100000)"
fill="#000000" stroke="none">
<path d="M3160 4320 c-102 -27 -241 -97 -321 -163 -163 -136 -279 -367 -279
-559 l0 -78 53 0 c161 0 359 111 481 269 96 124 146 249 167 411 12 93 7 140
-14 139 -6 0 -46 -9 -87 -19z"/>
<path d="M3055 3463 c-38 -8 -148 -44 -243 -79 -209 -78 -238 -81 -369 -33
-332 120 -309 113 -428 113 -132 -1 -217 -20 -332 -74 -240 -112 -412 -317
-492 -585 -85 -285 -65 -666 53 -1032 130 -399 416 -825 633 -941 128 -68 225
-63 429 19 258 104 388 105 630 6 142 -58 198 -70 294 -65 104 6 186 46 282
137 112 104 246 291 343 473 49 93 135 295 135 316 0 5 -39 33 -87 62 -218
133 -344 330 -374 584 -32 275 81 540 305 711 35 28 65 53 65 56 2 19 -153
169 -217 210 -179 117 -426 165 -627 122z m360 -38 c87 -24 194 -79 251 -130
l49 -44 -457 -1 c-255 0 -458 4 -458 9 0 5 9 29 20 54 21 48 33 54 164 97 128
41 309 48 431 15z"/>
</g>
</svg>
